<svg viewBox="0 0 640 512" version="1.1" id="svg4" xmlns="http://www.w3.org/2000/svg"   >
    <path
        d="m 286.18164,304.41415 8.89788,4.6521 c 4.06957,2.18067 8.55299,3.27101 13.17437,3.27101 16.2093,0 29.38367,-13.88362 29.38367,-30.96556 v -15.55546 c 0,-25.65925 -19.79604,-46.52102 -44.14449,-46.52102 h -44.21346 c -24.34845,0 -44.14449,20.86177 -44.14449,46.52102 v 15.55546 c 0,17.08194 13.17437,30.96556 29.38367,30.96556 4.55241,0 9.03583,-1.09034 13.17438,-3.27101 l 8.89787,-4.6521 5.79396,-3.05295 -8.20811,-5.74243 c -3.10391,-2.18068 -4.89728,-5.81513 -4.89728,-9.66765 v -2.6895 c 0,-9.66765 7.3804,-17.44538 16.55418,-17.44538 h 11.03612 c 9.17378,0 16.55419,7.77773 16.55419,17.44538 v 2.6895 c 0,3.85252 -1.86235,7.48697 -4.89728,9.66765 l -8.13914,5.74243 z m -5.93191,35.90841 -8.89788,-4.72479 -8.89787,4.6521 c -8.69095,4.57941 -18.27858,6.97815 -27.93519,6.97815 -2.48312,0 -4.89727,-0.14538 -7.31143,-0.43614 v 0.43614 c 0,25.65925 19.79605,46.52102 44.14449,46.52102 h 44.14449 c 12.20871,0 22.07225,10.39454 22.07225,23.26051 0,12.86596 -9.86354,23.2605 -22.07225,23.2605 h 110.36122 v -34.89076 -11.63025 c 0,-17.22732 8.89788,-32.27396 22.07225,-40.26976 6.48372,-3.92521 14.00208,-6.25126 22.07224,-6.25126 v -11.63025 c 0,-19.26261 14.82979,-34.89077 33.10837,-34.89077 6.06987,0 11.03612,5.23362 11.03612,11.63026 v 23.26051 11.63025 34.89076 c 0,6.39664 4.96626,11.63026 11.03612,11.63026 6.06987,0 11.03613,-5.23362 11.03613,-11.63026 v -72.47102 c 0,-35.03614 -21.24454,-66.14707 -52.83544,-77.2685 l -5.86294,-2.0353 c -5.51806,-1.9626 -8.69094,-8.06849 -7.17348,-14.02899 1.51747,-5.96051 7.10451,-9.59496 12.82949,-8.43194 l 13.72618,2.90757 c 61.38843,12.93866 105.53292,69.70884 105.53292,135.63784 v 0.79958 0 c 0,89.9164 -69.18269,162.82356 -154.50571,162.82356 h -0.75873 -109.60249 -0.41386 c -85.11609,0 -154.09186,-72.68909 -154.09186,-162.38743 v -0.43613 -28.49412 c -6.96655,-10.61261 -11.03612,-23.47858 -11.03612,-37.3622 v -15.55546 -1.01765 c -6.41474,-2.39874 -11.03612,-8.79538 -11.03612,-16.42773 0,-9.66765 7.38041,-17.44538 16.55418,-17.44538 h 1.93133 c 12.41563,-27.47648 38.9713,-46.52102 69.80347,-46.52102 h 44.14449 c 30.83216,0 57.38783,19.04454 69.80347,46.52102 h 1.93132 c 9.17378,0 16.55419,7.77773 16.55419,17.44538 0,7.63235 -4.62138,14.02899 -11.03613,16.42773 v 1.01765 15.55546 c 0,1.01765 0,2.0353 -0.069,3.12564 8.27709,-4.50673 17.72677,-6.97816 27.65928,-6.97816 h 5.51806 c 12.20871,0 22.07224,10.39454 22.07224,23.26051 0,12.86597 -9.86353,23.26051 -22.07224,23.26051 h -5.51806 c -9.17378,0 -16.55418,7.77773 -16.55418,17.44538 v 5.81513 h 38.90233 c -10.48432,12.35714 -16.83009,28.6395 -16.83009,46.52102 h -22.07224 c -29.17675,0 -53.93905,-19.91681 -62.76795,-47.46598 -3.51776,0.6542 -7.1045,0.94496 -10.76022,0.94496 -9.72558,0 -19.24424,-2.39874 -27.93518,-6.97815 z m -53.04237,-62.87607 c -6.06986,0 -11.03612,-5.23361 -11.03612,-11.63025 0,-6.39664 4.96626,-11.63026 11.03612,-11.63026 6.06987,0 11.03613,5.23362 11.03613,11.63026 0,6.39664 -4.96626,11.63025 -11.03613,11.63025 z m 99.3251,-11.63025 c 0,6.39664 -4.96625,11.63025 -11.03612,11.63025 -6.06987,0 -11.03612,-5.23361 -11.03612,-11.63025 0,-6.39664 4.96625,-11.63026 11.03612,-11.63026 6.06987,0 11.03612,5.23362 11.03612,11.63026 z"
        id="path2" fill="var(--logo-base-color)" style="stroke-width:0.708081, color: black" />
    <path
        d="m 134.15122,57.773337 c 2.45473,-4.829136 2.50352,-10.927766 -0.32253,-16.053061 -4.36753,-7.920917 -13.93146,-10.693359 -21.37192,-6.19537 -7.44045,4.497981 -9.92936,14.556727 -5.56183,22.477644 2.84581,5.161135 7.89464,8.130316 13.11602,8.319004 l 3.35663,52.736266 c 0.53306,8.37523 -6.38473,15.04223 -14.24768,13.72651 l -44.08827,-7.4204 c 0.35926,-3.419 -0.27101,-7.00441 -2.04964,-10.23013 -4.367531,-7.92091 -13.931481,-10.69333 -21.371941,-6.19534 -7.44045,4.49798 -9.92939,14.55673 -5.56186,22.47764 4.36753,7.92092 13.93147,10.69334 21.37193,6.19536 0.0673,-0.0407 0.16834,-0.10176 0.23567,-0.14247 l 65.069081,80.80367 c 7.85952,9.77634 21.16867,12.33958 31.60551,6.03018 l 93.32556,-56.41815 c 10.40321,-6.28905 14.9575,-19.60349 10.81527,-31.67483 L 224.174,36.80366 c 0.0674,-0.04072 0.1683,-0.101744 0.23569,-0.142484 7.44043,-4.497961 9.92938,-14.556724 5.56185,-22.477641 C 225.604,6.2626163 216.04005,3.4902123 208.59962,7.9881743 c -7.44044,4.4979787 -9.92944,14.5567587 -5.56191,22.4776777 1.77863,3.225713 4.42897,5.589936 7.43643,6.973655 L 194.56732,81.12876 c -2.84326,7.787955 -11.81636,10.727478 -18.47687,6.05648 z"
        id="path10" fill="var(--logo-accent-color)" style="stroke-width:0.401111" />
</svg>